{
    "asset" : {
        "generator" : "Khronos glTF Blender I/O v1.4.40",
        "version" : "2.0"
    },
    "scene" : 0,
    "scenes" : [
        {
            "name" : "Scene",
            "nodes" : [
                0
            ]
        }
    ],
    "nodes" : [
        {
            "mesh" : 0,
            "name" : "andragon_falling.001",
            "rotation" : [
                0.7071068286895752,
                0,
                0,
                0.7071067094802856
            ],
            "scale" : [
                2.9095733165740967,
                2.9095733165740967,
                2.9095733165740967
            ],
            "translation" : [
                0.18248556554317474,
                0.31608840823173523,
                1.7565876245498657
            ]
        }
    ],
    "materials" : [
        {
            "doubleSided" : true,
            "name" : "Material.001",
            "pbrMetallicRoughness" : {
                "baseColorFactor" : [
                    0.18355637788772583,
                    0.009737090207636356,
                    0.06419796496629715,
                    1
                ],
                "metallicFactor" : 0.5,
                "roughnessFactor" : 0
            }
        }
    ],
    "meshes" : [
        {
            "name" : "andragon_falling.001",
            "primitives" : [
                {
                    "attributes" : {
                        "POSITION" : 0,
                        "NORMAL" : 1
                    },
                    "indices" : 2,
                    "material" : 0
                }
            ]
        }
    ],
    "accessors" : [
        {
            "bufferView" : 0,
            "componentType" : 5126,
            "count" : 24574,
            "max" : [
                0.10246551036834717,
                -0.12348350882530212,
                0.4176371991634369
            ],
            "min" : [
                -0.29241862893104553,
                -0.6129336357116699,
                -0.13520404696464539
            ],
            "type" : "VEC3"
        },
        {
            "bufferView" : 1,
            "componentType" : 5126,
            "count" : 24574,
            "type" : "VEC3"
        },
        {
            "bufferView" : 2,
            "componentType" : 5123,
            "count" : 59598,
            "type" : "SCALAR"
        }
    ],
    "bufferViews" : [
        {
            "buffer" : 0,
            "byteLength" : 294888,
            "byteOffset" : 0
        },
        {
            "buffer" : 0,
            "byteLength" : 294888,
            "byteOffset" : 294888
        },
        {
            "buffer" : 0,
            "byteLength" : 119196,
            "byteOffset" : 589776
        }
    ],
    "buffers" : [
        {
            "byteLength" : 708972,
            "uri" : "data:application/octet-stream;base64,"
        }
    ]
}
